<svg xmlns="http://www.w3.org/2000/svg" xmlns:xlink="http://www.w3.org/1999/xlink" xmlns:inkscape="http://www.inkscape.org/namespaces/inkscape" version="1.1" width="349.258" height="400" viewBox="0 0 349.258 400">
<defs>
<clipPath id="clip_1">
<path transform="matrix(1,0,0,-1,0,400)" d="M0 400H349.258V0H0Z"/>
</clipPath>
<clipPath id="clip_2">
<path transform="matrix(1,0,0,-1,0,400)" d="M34.7082 120.145H316.704V371.167H34.7082Z"/>
</clipPath>
<clipPath id="clip_3">
<path transform="matrix(1,0,0,-1,0,400)" d="M75.0338 221.228H104.804V249.172H75.0338Z"/>
</clipPath>
<clipPath id="clip_4">
<path transform="matrix(1,0,0,-1,0,400)" d="M74.9057 221.062H275.691V249.359H74.9057Z"/>
</clipPath>
<clipPath id="clip_5">
<path transform="matrix(1,0,0,-1,0,400)" d="M245.791 221.103H275.882V249.393H245.791Z"/>
</clipPath>
</defs>
<g>
<g inkscape:groupmode="layer" inkscape:label="Livello 1">
<g inkscape:groupmode="layer" inkscape:label="Livello 2">
<g clip-path="url(#clip_1)">
<path transform="matrix(1,0,0,-1,303.4551,174.8851)" d="M0 0C9.158-7.263 14.498-18.357 14.829-30.061 15.203-42.621 9.808-54.795 .124-62.68-12.049-70.911-27.46-72.695-40.685-66.969-49.304-63.399-57.188-58.364-63.994-51.918-69.722-46.896-74.397-41.183-78.686-35.096-79.751-33.989-80.484-32.938-81.55-32.19-86.558-27.902-93.031-25.758-99.45-26.837-105.911-27.557-111.624-31.499-115.221-36.866-115.94-38.319-116.659-39.356-117.019-40.81-119.163-48.32-120.242-56.206-120.616-64.091-120.961-73.774-121.667-83.79-123.106-93.474L-126.315-106.021-150.316-98.136C-147.827-94.539-145.668-90.597-143.87-86.308-140.273-77.012-138.129-67.328-137.396-57.645-137.05-51.932-137.396-45.845-139.194-40.449-139.554-39.024-140.273-37.586-140.993-36.507-144.589-31.14-150.303-27.57-156.763-26.464-163.209-25.398-169.656-27.57-174.664-31.858-175.743-32.551-176.822-33.657-177.541-34.723-181.484-41.183-186.492-46.536-192.232-51.558-199.053-58.019-206.896-63.04-215.515-66.595-229.113-71.99-244.524-70.552-256.324-62.307-266.007-54.422-271.402-42.248-271.029-29.7-270.655-17.167-264.223-5.699-254.193 1.812-264.569 9.006-270.655 20.82-271.029 33.353-271.389 45.914-266.021 58.087-256.337 65.973-244.164 74.55-228.767 75.988-215.528 70.261-204.046 65.599-193.671 58.087-185.786 48.404-181.498 43.742-176.462 39.44-171.123 36.23-169.67 35.151-168.245 34.792-166.447 34.432-164.648 34.432-162.85 34.432-161.439 35.151L-161.466 35.124C-160.401 35.47-160.042 35.815-159.322 36.189-157.164 38.333-156.085 40.851-156.085 43.729-156.085 46.592-157.15 49.124-159.309 51.254-162.158 53.771-165.036 56.262-168.245 58.06-180.778 66.291-190.821 78.465-196.549 92.437-201.944 106.049-200.491 121.446-192.26 133.273-184.375 142.957-172.201 148.325-159.654 147.965-147.107 147.605-135.667 141.159-128.155 131.115-120.961 141.519-109.147 147.605-96.614 147.965-84.054 148.325-71.88 142.957-63.994 133.273-55.418 121.1-53.979 105.689-59.706 92.409-65.434 78.437-75.477 66.263-88.01 58.019-91.247 56.22-94.097 53.702-96.974 51.212-99.132 49.068-100.197 46.55-100.197 43.701-100.197 40.837-99.132 38.333-96.974 36.175-96.282 35.442-95.549 35.11-94.83 34.75-93.391 34.031-91.62 33.671-89.822 34.031-88.023 34.391-86.585 35.11-85.16 35.829-79.765 39.053-74.785 43.341-70.455 48.003-62.569 57.687-52.194 65.198-40.713 69.86-27.114 75.228-11.717 73.803 .097 65.572 9.78 57.687 15.147 45.513 14.788 32.966 14.414 20.488 8.01 9.034-1.951 1.536L-2.365 1.812C13.751 13.64 18.053 35.843 7.317 52.692-3.444 69.528-25.302 75.241-42.856 65.585-51.434 61.629-59.318 56.262-65.779 49.815-70.801 44.793-75.809 40.131-81.189 35.843-85.479 32.966-90.5 31.555-95.881 31.181-97.68 31.181-99.478 31.873-100.169 33.671-101.249 36.203-101.968 38.721-101.608 41.557-101.249 46.232-99.464 50.548-95.881 53.398-93.018 55.916-90.141 58.06-86.917 59.858-76.888 68.089-69.002 78.119-63.635 89.946-53.951 107.515-59.679 129.373-76.5 140.107-94.069 150.856-116.286 146.554-128.1 130.424L-128.141 130.465C-139.969 146.582-162.172 150.884-179.021 140.149-195.871 129.386-201.598 107.529-191.928 89.974-186.575 78.146-178.703 68.117-168.66 59.886-165.437 58.087-162.573 55.598-159.709 53.426-156.113 50.562-154.314 45.914-153.982 41.612-153.982 38.748-154.342 36.217-155.421 33.727-156.113 32.288-157.911 31.236-159.709 31.236-165.077 31.583-170.085 33.007-174.401 35.871-179.769 40.159-184.776 44.807-189.798 49.843-196.604 56.275-204.489 61.643-212.734 65.613-230.303 75.255-252.16 69.528-262.895 52.692-273.616 35.843-269.313 13.64-253.211 1.812-269.313-10.029-273.27-32.219-262.895-49.096-252.104-65.917-230.248-71.645-212.707-61.961-200.159-56.247-189.411-47.643-181.166-36.895-179.741-35.096-178.316-33.298-176.518-31.526-171.51-25.786-163.984-22.562-156.458-24.001-148.933-25.066-142.487-30.088-139.264-37.254-138.544-38.333-138.185-39.744-137.465-41.196-136.04-46.177-135.321-51.226-135.321-56.247-135.321-61.255-136.013-66.277-137.451-70.938-138.89-76.292-140.674-82.006-142.473-87.4-143.898-90.998-145.696-94.566-147.84-97.776L-126.703-104.97-124.212-94.927C-122.76-84.896-122.041-74.867-121.335-64.824-120.961-56.939-119.882-49.054-118.098-41.169-117.738-39.744-117.019-38.679-116.3-37.24-113.436-30.074-106.99-25.066-99.104-23.987-91.579-22.908-84.054-25.786-79.046-31.513-77.607-33.312-75.822-35.109-74.384-36.88-66.139-47.629-55.39-56.247-42.843-61.961-25.302-71.645-3.444-65.931 7.304-49.096 17.514-33.049 14.124-12.229-.069-.042Z" fill="#ffffff"/>
<path transform="matrix(1,0,0,-1,177.1401,281.18299)" d="M0 0H-.069L-24.071 7.886C-24.126 7.886-24.167 7.94-24.181 7.996-24.181 8.038-24.181 8.093-24.154 8.135-21.664 11.689-19.505 15.66-17.721 19.921-14.18 29.147-12.008 38.776-11.289 48.557-10.874 55.113-11.468 60.868-13.087 65.669-13.391 66.914-14.055 68.353-14.844 69.542-18.344 74.799-24.057 78.451-30.503 79.502-31.583 79.696-32.689 79.779-33.782 79.779-38.9 79.779-44.074 77.801-48.307 74.177-49.373 73.457-50.424 72.405-51.129 71.354-54.698 65.517-59.374 60.149-65.848 54.478-72.53 48.155-80.374 43.078-89.172 39.398-94.54 37.296-100.156 36.217-105.855 36.217-114.709 36.217-123.12 38.817-130.161 43.729-139.762 51.559-145.281 63.787-144.908 76.473-144.562 88.729-138.475 100.197-128.169 108.013-138.309 115.068-144.548 126.827-144.908 139.526-145.281 152.198-139.762 164.427-130.161 172.257-122.967 177.348-114.529 180.031-105.813 180.031-100.059 180.031-94.442 178.869-89.144 176.573-77.469 171.828-67.148 164.261-59.347 154.674-54.823 149.763-49.76 145.544-44.724 142.542-43.299 141.463-41.861 141.117-40.131 140.771-38.416 140.771-36.618 140.771-35.221 141.463-34.501 141.712-34.114 141.934-33.699 142.183-33.519 142.293-33.325 142.417-33.09 142.528-31.015 144.604-29.936 147.093-29.936 149.902-29.936 152.696-31.001 155.186-33.118 157.303-35.912 159.751-38.817 162.283-42.027 164.081-54.615 172.34-64.672 184.583-70.386 198.555-75.892 212.471-74.287 227.799-66.097 239.558-58.544 248.826-46.758 254.359-34.529 254.359-34.142 254.359-33.74 254.359-33.353 254.332-21.083 253.972-9.601 247.885-1.812 237.593 5.243 247.719 17.001 253.972 29.729 254.332 42.359 254.719 54.67 249.13 62.445 239.585 71.022 227.439 72.626 212.112 66.775 198.568 61.047 184.597 50.963 172.368 38.416 164.123 35.193 162.324 32.288 159.779 29.479 157.344 27.376 155.214 26.298 152.724 26.298 149.916 26.298 147.093 27.376 144.604 29.479 142.5 30.171 141.809 30.863 141.463 31.582 141.117 33.131 140.329 34.902 140.08 36.507 140.398 38.278 140.744 39.716 141.463 41.114 142.168 46.163 145.185 51.24 149.39 55.777 154.314 63.58 163.901 73.899 171.468 85.575 176.227 90.942 178.357 96.559 179.437 102.272 179.437 111.125 179.437 119.537 176.836 126.591 171.925 136.192 164.081 141.711 151.838 141.352 139.167 140.993 126.91 134.892 115.442 124.614 107.654 134.712 100.599 140.979 88.813 141.352 76.113 141.698 63.441 136.178 51.213 126.591 43.383 119.149 38.375 110.614 35.719 101.871 35.719 96.199 35.719 90.708 36.854 85.547 39.08 76.777 42.719 68.919 47.796 62.224 54.159 57.216 58.517 52.541 63.884 47.518 71.036 47.159 71.354 46.827 71.728 46.508 72.087 45.956 72.751 45.402 73.374 44.71 73.83 40.463 77.427 35.303 79.433 30.185 79.433 29.078 79.433 27.972 79.336 26.906 79.156 20.82 78.492 14.954 74.757 11.247 69.196 11.108 68.851 10.901 68.505 10.721 68.158 10.209 67.19 9.752 66.36 9.503 65.309 7.498 58.351 6.322 50.534 5.907 42.068 5.492 30.863 4.662 21.263 3.417 12.658L.166 .111C.166 .069 .125 .042 .083 .014H0M-23.752 8.272-.097 .526 3.057 12.879C4.33 21.456 5.132 31.057 5.547 42.207 5.962 50.729 7.166 58.572 9.144 65.544 9.42 66.623 9.905 67.522 10.389 68.449 10.583 68.795 10.776 69.141 10.942 69.515 14.719 75.187 20.667 78.949 26.851 79.641 27.958 79.779 29.064 79.917 30.171 79.917 35.386 79.917 40.602 77.87 44.89 74.204 45.582 73.733 46.163 73.098 46.757 72.405 47.035 72.06 47.367 71.687 47.726 71.326 52.761 64.188 57.41 58.876 62.389 54.478 69.085 48.155 76.915 43.105 85.63 39.454 90.749 37.24 96.212 36.134 101.857 36.134 110.517 36.134 119.01 38.762 126.342 43.742 135.86 51.489 141.325 63.635 140.964 76.21 140.619 88.881 134.352 100.612 124.226 107.612 124.17 107.612 124.143 107.681 124.143 107.75 124.143 107.792 124.17 107.833 124.212 107.889 134.491 115.608 140.605 127.048 140.951 139.291 141.311 151.852 135.833 163.984 126.329 171.745 119.342 176.587 111.001 179.174 102.216 179.174 96.544 179.174 90.984 178.108 85.658 175.992 74.038 171.289 63.759 163.735 55.985 154.204 51.419 149.224 46.301 145.019 41.251 141.975 39.813 141.242 38.347 140.509 36.548 140.149 34.861 139.817 33.021 140.08 31.43 140.882 30.697 141.242 29.963 141.615 29.216 142.349 27.059 144.52 25.966 147.093 25.966 149.985 25.966 152.89 27.072 155.435 29.23 157.593 32.066 160.083 34.985 162.643 38.222 164.455 50.714 172.658 60.744 184.845 66.443 198.762 72.253 212.208 70.676 227.398 62.182 239.433 54.712 248.604 43.008 254.097 30.891 254.097 30.476 254.097 30.102 254.097 29.714 254.069 17.015 253.709 5.284 247.429-1.688 237.303L-1.826 237.233C-1.896 237.233-1.964 237.233-1.964 237.289-9.711 247.609-21.166 253.751-33.367 254.069H-34.557C-46.688 254.069-58.378 248.604-65.848 239.433-73.982 227.785-75.573 212.568-70.137 198.762-64.423 184.845-54.394 172.658-41.889 164.455-38.651 162.656-35.732 160.097-32.896 157.621-30.738 155.463-29.632 152.89-29.632 149.985-29.632 147.08-30.738 144.506-32.883 142.334L-32.938 142.307-33.533 141.947C-33.948 141.698-34.335 141.449-35.055 141.2-36.521 140.481-38.375 140.481-40.146 140.481-41.944 140.854-43.438 141.214-44.918 142.321-49.967 145.364-55.058 149.57-59.623 154.522-67.37 164.067-77.648 171.606-89.296 176.338-94.553 178.606-100.114 179.769-105.828 179.769-114.474 179.769-122.843 177.099-129.981 172.049-139.485 164.302-144.949 152.157-144.589 139.596-144.229 126.91-137.949 115.166-127.823 108.193-127.782 108.152-127.754 108.096-127.754 108.055-127.754 108-127.782 107.944-127.823 107.917-138.129 100.169-144.244 88.729-144.589 76.514-144.949 63.926-139.471 51.793-129.967 44.033-122.981 39.163-114.64 36.59-105.855 36.59-100.184 36.59-94.622 37.655-89.283 39.772-80.54 43.41-72.724 48.46-66.042 54.781-59.609 60.398-54.947 65.737-51.378 71.575-50.659 72.683-49.58 73.747-48.473 74.48-44.212 78.133-38.983 80.152-33.782 80.152-32.675 80.152-31.541 80.056-30.462 79.876-23.905 78.77-18.122 75.104-14.553 69.777-13.723 68.532-13.073 67.08-12.755 65.766-11.15 60.965-10.542 55.155-10.957 48.528-11.689 38.707-13.861 29.064-17.417 19.811-19.16 15.577-21.29 11.648-23.752 8.135" fill="#ffffff"/>
<g opacity="0">
<g clip-path="url(#clip_2)">
<path transform="matrix(1,0,0,-1,175.3555,44.4198)" d="M0 0C-11.828 16.116-34.031 20.418-50.88 9.684-67.729-1.079-73.457-22.936-63.787-40.491-58.434-52.319-50.562-62.348-40.519-70.579-37.295-72.378-34.432-74.868-31.568-77.04-27.972-79.903-26.173-84.551-25.841-88.854-25.841-91.717-26.201-94.249-27.28-96.739-27.972-98.177-29.77-99.229-31.568-99.229-36.936-98.883-41.944-97.458-46.26-94.595-51.627-90.306-56.635-85.658-61.657-80.623-68.463-74.19-76.348-68.822-84.593-64.852-102.162-55.21-124.019-60.938-134.753-77.773-145.475-94.622-141.172-116.825-125.07-128.653-141.172-140.495-145.129-162.684-134.753-179.561-123.963-196.382-102.106-202.11-84.565-192.426-72.018-186.712-61.269-178.108-53.024-167.36-51.6-165.561-50.175-163.763-48.376-161.992-43.369-156.251-35.843-153.028-28.317-154.467-20.792-155.532-14.346-160.553-11.122-167.719-10.403-168.798-10.043-170.209-9.324-171.662-7.899-176.642-7.18-181.691-7.18-186.712-7.18-191.72-7.872-196.743-9.31-201.404-10.749-206.757-12.533-212.471-14.332-217.866-15.756-221.463-17.555-225.032-19.699-228.242L1.438-235.435 3.929-225.392C5.381-215.362 6.101-205.333 6.806-195.29 7.18-187.405 8.259-179.519 10.043-171.634 10.403-170.209 11.122-169.144 11.842-167.706 14.705-160.54 21.151-155.532 29.037-154.453 36.563-153.374 44.088-156.251 49.096-161.978 50.534-163.777 52.318-165.575 53.758-167.345 62.002-178.094 72.751-186.712 85.298-192.426 102.839-202.11 124.696-196.396 135.445-179.561 146.18-162.684 141.878-140.508 125.762-128.653 141.878-116.853 146.18-94.622 135.445-77.8 124.683-60.965 102.825-55.251 85.271-64.908 76.693-68.864 68.809-74.231 62.349-80.678 57.326-85.7 52.318-90.361 46.938-94.65 42.649-97.527 37.628-98.938 32.246-99.312 30.448-99.312 28.649-98.62 27.958-96.822 26.879-94.29 26.159-91.772 26.519-88.937 26.879-84.261 28.663-79.945 32.246-77.095 35.11-74.577 37.987-72.433 41.21-70.635 51.24-62.404 59.125-52.375 64.492-40.546 74.176-22.978 68.449-1.121 51.627 9.614 34.059 20.363 11.841 16.061 .027-.069" fill="#ffffff"/>
</g>
</g>
<path transform="matrix(1,0,0,-1,177.4028,280.9613)" d="M0 0-23.241 7.857-22.549 8.881C-20.584 11.855-18.814 15.286-17.292 19.09-15.258 25.177-13.557 30.711-12.312 35.47-10.929 39.965-10.182 44.959-10.182 49.897-10.182 54.795-10.915 59.775-12.312 64.7-12.547 65.143-12.796 65.765-13.031 66.359-13.308 67.106-13.612 67.813-13.972 68.366-17.154 75.421-23.324 80.166-30.517 81.189-31.693 81.411-32.841 81.521-33.976 81.521-39.813 81.521-45.554 78.796-49.746 73.996-51.544 72.197-52.983 70.399-54.38 68.656-62.708 57.811-73.747 49.04-86.267 43.299-91.911 40.187-98.357 38.526-104.832 38.526-118.139 38.526-130.396 45.264-137.617 56.552-148.062 73.539-144.119 95.839-128.681 107.944-144.368 120.2-148.324 142.528-137.617 159.308-130.424 170.596-118.153 177.333-104.832 177.333-98.371 177.333-91.925 175.673-86.211 172.533-77.87 168.549-69.86 163.043-63.109 156.624-57.479 151.022-52.596 146.595-47.754 142.708-43.88 140.135-39.094 138.627-33.574 138.253-32.246 138.253-30.752 139.111-30.185 140.246-29.258 142.376-28.843 144.7-28.843 147.715-29.23 152.281-31.195 156.361-34.238 158.782L-36.493 160.54C-38.568 162.199-40.754 163.859-43.064 165.16-53.495 173.709-61.408 183.946-66.748 195.69-76.542 213.453-70.731 236.029-53.508 247.014-47.283 250.998-40.131 253.1-32.786 253.1-20.861 253.1-9.49 247.511-2.13 238.119 5.312 247.636 16.49 253.059 28.719 253.059 36.133 253.059 43.479 250.984 49.94 247.027 67.19 236.016 72.987 213.439 63.165 195.622 57.866 183.932 49.94 173.695 39.647 165.243 36.604 163.541 33.809 161.508 30.725 158.824 26.713 155.601 25.551 150.966 25.288 147.619 24.928 144.713 25.772 142.224 26.644 140.19 27.363 138.447 29.3 138.253 30.102 138.253 35.552 138.627 40.339 140.135 44.268 142.763 49.054 146.637 53.952 151.036 59.526 156.597 65.945 163.057 73.968 168.577 82.725 172.588 88.397 175.715 94.816 177.375 101.29 177.375 114.612 177.375 126.855 170.638 134.076 159.35 144.783 142.556 140.827 120.228 125.153 107.958 140.827 95.673 144.796 73.373 134.062 56.565 126.869 45.277 114.625 38.54 101.276 38.54 94.83 38.54 88.411 40.2 82.684 43.354 70.234 49.026 59.208 57.811 50.867 68.67 50.174 69.542 49.386 70.427 48.597 71.299 47.768 72.212 46.938 73.124 46.246 74.037 41.459 79.488 34.141 82.241 27.017 81.231 19.478 80.193 13.322 75.462 10.555 68.546L9.974 67.438C9.476 66.498 9.047 65.696 8.812 64.741 7.042 56.994 5.962 49.082 5.63 41.293 4.911 31.389 4.178 21.179 2.725 11.095L-.042-.014V.014ZM-20.308 8.812-1.287 2.365 .982 11.385C2.366 21.317 3.085 31.485 3.791 41.321 4.15 49.206 5.243 57.202 7.042 65.115 7.318 66.305 7.816 67.231 8.355 68.228L8.881 69.265C11.883 76.735 18.565 81.909 26.81 83.029 27.875 83.195 28.981 83.278 30.061 83.278 36.797 83.278 43.203 80.332 47.712 75.214 48.446 74.301 49.234 73.415 50.037 72.529 50.867 71.645 51.668 70.731 52.388 69.832 60.55 59.181 71.34 50.604 83.583 45.015 89.117 41.971 95.204 40.422 101.373 40.422 114.044 40.422 125.72 46.841 132.568 57.575 142.999 73.899 138.848 95.687 123.161 107.21L122.11 107.958 123.147 108.705C138.834 120.214 142.985 142.002 132.554 158.312 125.707 169.061 114.017 175.466 101.373 175.466 95.217 175.466 89.088 173.903 83.666 170.901 75.034 166.944 67.204 161.563 60.923 155.296 55.293 149.652 50.369 145.198 45.429 141.255 41.183 138.392 36.078 136.773 30.24 136.386 27.708 136.386 25.786 137.548 25.011 139.484 24.043 141.698 23.102 144.465 23.517 147.785 23.904 153.041 26.007 157.385 29.576 160.235 32.73 163.002 35.635 165.077 38.665 166.778 48.583 174.94 56.331 184.956 61.56 196.437 70.939 213.453 65.406 234.951 48.999 245.409 42.842 249.186 35.857 251.191 28.76 251.191 16.725 251.191 5.741 245.658-1.342 235.974L-2.089 234.951-2.85 236.002C-9.822 245.52-21 251.219-32.73 251.219-39.73 251.219-46.564 249.213-52.457 245.437-68.864 234.951-74.384 213.481-65.046 196.507-59.789 184.97-52.042 174.926-41.985 166.695-39.661 165.45-37.448 163.693-35.304 162.02L-33.035 160.249C-29.576 157.482-27.363 152.917-26.92 147.743-26.92 144.382-27.391 141.85-28.442 139.401-29.355 137.576-31.485 136.331-33.602 136.331-39.509 136.746-44.6 138.35-48.819 141.172-53.799 145.143-58.71 149.611-64.354 155.283-70.953 161.508-78.811 166.903-87.042 170.832-92.52 173.875-98.662 175.438-104.804 175.438-117.476 175.438-129.151 169.033-135.999 158.285-146.401 141.961-142.265 120.187-126.564 108.677L-125.526 107.93-126.564 107.169C-142.016 95.826-146.167 74.037-135.971 57.548-129.137 46.813-117.476 40.395-104.804 40.395-98.648 40.395-92.52 41.971-87.097 44.959-74.757 50.604-63.995 59.181-55.833 69.805-54.408 71.603-52.928 73.401-51.102 75.255-45.707 81.438-37.683 84.454-30.213 83.043-22.411 81.937-15.715 76.776-12.326 69.265-11.911 68.712-11.606 67.882-11.274 67.052-11.053 66.498-10.818 65.945-10.541 65.364-9.02 60.148-8.286 54.988-8.286 49.912-8.286 44.724-9.047 39.675-10.5 34.972-11.745 30.198-13.46 24.638-15.521 18.468-16.933 14.912-18.565 11.689-20.335 8.854" fill="#ffffff"/>
<path transform="matrix(1,0,0,-1,257.0293,161.577)" d="M0 0 3.569 10.749 7.166 0H18.647L9.324-6.433 12.921-17.181 3.597-10.749-5.354-17.181-2.116-6.433-11.108 .014H.014ZM-152.267 0H-163.362L-166.958 10.749-170.555 0H-181.996L-172.686-6.446-176.241-17.195-166.917-10.749-157.966-17.167-161.19-6.419-152.239 .014ZM-39.758-34.031C-46.578-32.606-53.384-31.887-60.19-31.167-57.327-16.476-50.866-2.504-41.557 9.31-36.535 15.397-30.808 20.792-23.987 24.749-17.9 28.691-10.749 30.476-3.583 30.835 10.029 30.476 21.871 22.59 27.598 10.417 30.434 4.302 31.887-2.504 32.219-8.95 32.578-29.729 16.821-47.27-3.61-48.708-.388-39.025-3.61-28.649-11.842-22.562-16.877-19.699-22.964-19.699-27.612-22.562-32.288-25.786-36.188-29.341-39.785-34.044ZM-123.59-34.031C-116.812-32.606-109.991-31.887-103.185-31.167-106.049-16.476-112.495-2.504-121.805 9.31-126.854 15.397-132.596 20.792-139.374 24.749-145.461 28.691-152.654 30.476-159.82 30.835-173.433 30.476-185.247 22.59-190.987 10.417-193.865 4.302-195.276-2.504-195.663-8.95-196.009-29.729-180.252-47.27-159.834-48.708-163.057-39.025-159.834-28.649-151.589-22.562-146.582-19.699-140.495-19.699-135.819-22.562-131.185-25.786-127.242-29.369-123.645-34.044H-123.618ZM-45.499-51.599C-50.507-52.292-55.874-53.024-60.896-53.398-60.204-59.111-58.406-64.852-55.528-69.86-52.665-75.255-48.362-79.184-42.995-81.342-37.974-82.767-32.62-82.034-28.304-78.824-24.016-75.96-21.138-71.298-20.419-66.277-26.146-68.076-32.246-67.715-37.613-64.852-40.478-63.414-42.636-61.255-43.7-58.406-44.779-56.248-45.499-54.118-45.499-51.599M-117.876-51.599C-112.855-52.292-107.474-53.024-102.466-53.398-103.185-59.111-104.956-64.852-107.833-69.86-110.738-75.255-115.027-79.184-120.422-81.342-125.402-82.767-130.797-82.034-135.085-78.824-139.374-75.96-142.279-71.298-142.971-66.277-137.244-68.076-131.157-67.715-125.775-64.852-122.912-63.414-120.768-61.255-119.689-58.406-118.61-56.248-117.891-54.118-117.891-51.599ZM-81.674-86.667-76.666-54.103C-72.724-54.103-69.141-54.103-65.212-53.744-63.773-64.852-58.765-75.255-51.6-83.832-59.139-94.94-69.514-103.544-81.688-109.286-93.861-103.891-104.264-94.94-111.804-83.832-104.264-75.255-99.63-64.852-97.832-53.744-93.875-53.744-90.292-54.103-86.35-54.103L-81.688-86.667V-86.709-86.667Z" fill="#ffffff" fill-rule="evenodd"/>
<path transform="matrix(1,0,0,-1,175.3418,105.3295)" d="M0 0-5.741-86.709C-9.338-86.709-12.907-87.069-16.49-87.069-17.209-79.184-18.98-71.658-21.885-64.133-24.735-55.182-28.318-46.218-31.9-37.268-35.498-28.663-38.347-20.059-40.132-11.122-43.729 3.223-39.44 18.62-29.064 29.023-22.978 34.75-16.891 40.505-10.431 45.858-5.409 49.773-1.826 55.127-.056 61.242 1.743 55.155 5.339 50.133 10.347 45.831 16.794 40.436 23.24 34.708 28.967 28.981 39.343 18.233 43.299 3.182 40.076-11.136 38.277-20.1 35.4-29.064 31.817-37.309 27.875-45.886 24.651-54.878 21.788-64.174 19.27-71.7 17.472-79.225 16.393-87.097 12.824-86.751 9.241-86.751 5.658-86.751L-.083-.042H-.042ZM-50.867-98.523C-50.867-102.812-28.318-106.768 0-106.768 27.944-106.768 50.853-103.171 50.853-98.523 50.853-94.235 28.276-90.292-.028-90.292-27.972-90.652-50.908-94.235-50.908-98.523" fill="#ffffff"/>
<g opacity="0">
<g clip-path="url(#clip_3)">
<path transform="matrix(1,0,0,-1,104.7622,161.577)" d="M0 0H-11.095L-14.691 10.749-18.288 0H-29.729L-20.418-6.446-23.974-17.195-14.65-10.749-5.699-17.167-8.923-6.419 .042 .028V0Z" fill="#ffffff"/>
</g>
</g>
<g opacity="0">
<g clip-path="url(#clip_4)">
<path transform="matrix(1,0,0,-1,275.6494,161.577)" d="M0 0H-11.454L-15.051 10.749-18.62 0H-29.729L-20.736-6.446-23.96-17.195-15.01-10.749-5.686-17.167-9.282-6.419 .041 .028 .014 0ZM-194.889-17.361C-194.93-17.361-194.958-17.361-194.985-17.333-195.041-17.292-195.068-17.195-195.041-17.154L-191.472-6.502-200.685-.138C-200.726-.097-200.754-.028-200.74 .042-200.712 .138-200.643 .18-200.574 .18H-189.23L-185.689 10.832C-185.647 10.97-185.413 10.97-185.371 10.832L-181.843 .18H-170.859C-170.804 .18-170.721 .138-170.721 .042-170.721 .014-170.721-.097-170.79-.097L-179.644-6.46-176.462-17.112C-176.435-17.195-176.462-17.25-176.518-17.306-176.559-17.347-176.656-17.347-176.697-17.306L-185.551-10.942-194.778-17.306C-194.819-17.333-194.861-17.333-194.889-17.333M-200.09-.166-191.208-6.322C-191.153-6.322-191.126-6.405-191.153-6.46L-194.57-16.752-185.662-10.583C-185.634-10.527-185.564-10.527-185.523-10.583L-176.946-16.739-180.031-6.46C-180.031-6.391-180.031-6.322-179.962-6.28L-171.427-.111H-182.037C-182.106-.111-182.175-.083-182.175-.014L-185.634 10.265-189.037-.014C-189.064-.083-189.134-.125-189.203-.125H-200.131V-.18Z" fill="#ffffff"/>
</g>
</g>
<g opacity="0">
<g clip-path="url(#clip_5)">
<path transform="matrix(1,0,0,-1,251.6895,178.8968)" d="M0 0C-.042 0-.069 0-.097 .028-.152 .069-.18 .139-.166 .208L3.016 10.859-5.838 17.223C-5.894 17.278-5.907 17.361-5.894 17.417-5.852 17.5-5.796 17.555-5.755 17.555H5.271L8.813 28.207C8.854 28.318 9.089 28.318 9.116 28.207L12.672 17.555H24.016C24.099 17.555 24.153 17.5 24.182 17.417 24.209 17.361 24.182 17.278 24.126 17.25L14.913 10.887 18.454 .235C18.481 .18 18.454 .097 18.398 .056 18.344 0 18.261 0 18.205 .056L8.978 6.419 .124 .056 .027 .014M8.923 6.737C8.964 6.737 8.992 6.737 9.02 6.709L17.929 .567 14.512 10.846C14.483 10.901 14.512 10.984 14.566 11.025L23.476 17.167H12.547C12.464 17.167 12.409 17.209 12.381 17.278L8.964 27.557 5.533 17.278C5.533 17.209 5.45 17.167 5.396 17.167H-5.215L3.334 11.012C3.39 10.984 3.417 10.915 3.39 10.846L.305 .567 8.881 6.737C8.881 6.765 8.923 6.779 8.95 6.779" fill="#ffffff"/>
</g>
</g>
<path transform="matrix(1,0,0,-1,245.5469,329.3519)" d="M0 0C-1.452 1.826-2.904 2.905-5.062 3.625L-18.8-2.158C-16.614-5.062-15.161-8.659-14.096-12.257L4.358-3.956C2.56-3.237 1.107-1.784 .028 .014M19.492 10.846C18.054 12.313 16.255 13.392 14.097 13.751L-.014 6.143C2.145 5.451 3.583 4.344 5.036 2.546 6.143 .747 7.94-.359 10.099-1.051L24.956 7.608C22.425 7.969 20.972 9.062 19.533 10.859M-47.753 2.546C-47.394 .374-46.674-1.438-45.222-3.237-40.878-3.597-36.548-5.035-32.91-8.3-32.91-5.769-31.845-3.237-30.032-1.798-28.926-.691-28.234 .374-27.847 1.826-32.896 5.423-38.692 7.608-45.194 7.608H-49.538C-48.459 6.156-47.74 4.357-47.74 2.546M37.572 23.863C35.774 25.33 33.976 26.049 31.79 26.049L18.786 16.643C20.917 16.282 22.729 15.203 24.182 13.737 25.62 12.313 27.433 11.22 29.577 10.859L43.341 21.346C40.81 21.346 38.997 22.064 37.531 23.877M53.854 39.039C52.057 40.146 49.885 40.491 47.713 40.491L35.761 29.286C37.933 29.286 39.73 28.553 41.543 27.114 43.341 26.062 45.14 24.97 47.325 24.97L59.25 37.282C57.451 36.908 55.279 37.628 53.827 39.08M67.592 56.372C65.793 57.105 63.621 57.479 61.449 57.105L51.323 44.448C53.495 44.821 55.667 44.088 57.134 43.009 58.932 41.958 61.09 41.584 62.902 41.584L73.374 55.321C71.576 54.588 69.404 55.321 67.592 56.4M79.17 75.187C76.998 75.905 74.826 75.546 73.015 75.187L64.714 61.076C66.872 61.449 69.044 61.449 70.856 60.356 72.654 59.637 74.826 59.277 76.998 59.637L85.672 74.439C83.141 74.094 81.342 74.439 79.17 75.187M88.536 95.425C86.364 95.784 84.192 95.425 82.394 94.346L75.519 79.89C77.358 80.609 79.53 80.609 81.702 79.89 83.86 79.517 85.672 79.517 87.844 79.89L94.346 95.798C92.548 95.065 90.39 94.691 88.577 95.425M94.664 116.756C92.506 116.756 90.334 116.037 88.882 114.958L84.178 99.409C85.977 100.488 88.162 100.848 90.334 100.128 92.506 99.769 94.305 100.128 96.477 101.207L100.82 117.835C98.676 116.756 96.863 116.396 94.691 116.756M98.288 138.807C96.116 138.447 94.305 137.728 92.506 136.275L89.975 120.367C91.772 121.474 93.571 122.165 95.757 122.165 97.929 122.165 99.728 122.898 101.539 123.991L103.711 140.979C102.259 139.181 100.087 138.447 98.288 138.807M98.648 160.886C96.477 160.167 94.664 159.087 93.226 157.635L92.865 141.366C94.305 142.791 96.462 143.511 98.288 143.856 100.446 144.23 102.259 144.963 103.711 146.402V163.39C102.604 161.951 100.806 160.858 98.648 160.858M96.477 182.937C94.678 182.217 92.88 180.778 91.772 178.966L93.571 163.058C95.023 164.856 96.836 165.962 98.648 166.309 100.446 166.668 102.245 168.107 103.711 169.56L101.539 186.575C100.087 184.749 98.634 183.296 96.477 182.937M91.386 204.627C89.587 203.549 88.148 202.096 87.069 200.298L90.666 184.721C91.772 186.52 93.571 187.972 95.369 188.318 97.168 189.065 98.994 190.503 100.073 192.33L95.743 208.93C94.637 206.772 93.212 205.333 91.399 204.6M83.445 225.24C81.646 223.787 80.54 222.334 79.849 220.177L85.617 204.987C86.336 206.786 87.789 208.612 89.961 209.331 91.759 210.41 93.212 211.863 94.291 213.675L87.789 229.583C86.71 227.785 85.257 226.319 83.445 225.24M72.613 244.759C71.161 243.32 70.067 241.508 69.708 239.336L77.316 225.268C78.009 227.439 79.115 228.864 80.913 230.331 82.712 231.395 83.818 233.236 84.538 235.38L75.851 250.182C75.49 247.664 74.411 246.226 72.6 244.787M59.568 262.84C58.144 261.041 57.424 259.215 57.424 257.057L66.831 244.054C67.177 246.211 68.27 248.01 69.708 249.449 71.16 250.901 72.239 252.713 72.613 254.885L62.1 268.262C62.1 266.09 61.408 264.278 59.609 262.84M44.406 279.094C43.3 277.296 42.954 275.11 42.954 272.938L54.159 261.401C54.159 263.573 54.851 265.385 56.304 267.184 57.41 268.982 58.476 270.808 58.476 272.966L46.163 284.918C46.551 282.746 45.817 280.574 44.365 279.136M27.059 292.858C28.138 294.657 28.498 296.815 28.138 298.627L41.861 288.155C41.861 285.969 41.515 284.171 40.422 282.345 39.343 280.547 38.624 278.389 38.983 276.576L26.326 286.703C26.326 288.861 26.326 291.033 27.059 292.845M-195.69 269.687C-197.143 271.14-199.315 271.486-201.473 271.486L-189.548 283.797C-187.376 283.797-185.578 282.691-183.766 281.625-182.313 280.146-180.169 279.412-177.983 279.412L-189.548 268.207C-191.72 268.207-193.892 268.581-195.69 269.66M-209.399 252.368C-211.226 253.446-213.411 253.806-215.209 253.446L-204.724 267.183C-202.552 267.183-200.74 266.824-198.941 265.745-197.143 264.638-194.957 263.905-193.131 264.265L-203.271 251.621C-205.443 251.621-207.615 251.621-209.414 252.312M-220.979 233.554C-218.807 232.834-216.635 233.194-214.822 233.554L-206.522 247.291C-208.68 246.931-210.852 246.931-212.664 248.01-214.463 248.743-216.635 249.117-218.807 248.743L-227.521 233.941C-224.976 234.633-223.164 234.301-221.02 233.582M-230.357 213.315C-228.186 212.941-226.028 213.315-224.215 214.394L-217.34 228.85C-219.139 228.131-221.324 228.131-223.496 228.85-225.682 229.21-227.508 229.21-229.666 228.85L-236.167 212.941C-234.369 213.675-232.197 214.048-230.385 213.315M-236.472 191.984C-234.328 191.984-232.156 192.703-230.704 193.782L-226 209.331C-227.798 208.252-229.984 207.893-232.156 208.612-234.328 208.971-236.126 208.612-238.298 207.505L-242.642 190.905C-240.47 191.984-238.658 192.343-236.486 191.984M-240.11 170.03C-237.938 170.389-236.126 171.109-234.328 172.561L-231.796 188.47C-233.595 187.363-235.393 186.671-237.579 186.671-239.75 186.671-241.549 185.924-243.361 184.846L-245.533 167.858C-244.081 169.656-241.909 170.389-240.11 170.03M-240.47 147.965C-238.284 148.685-236.458 149.763-235.033 151.216L-234.674 167.484C-236.14 166.06-238.312 165.34-240.124 164.994-242.282 164.621-244.094 163.888-245.547 162.449V145.461C-244.44 146.9-242.642 147.979-240.484 147.979M-238.284 125.9C-236.486 126.634-234.687 128.072-233.581 129.884L-235.379 145.793C-236.832 143.995-238.644 142.888-240.456 142.528-242.254 142.168-244.053 140.73-245.492 139.277L-243.32 122.29C-241.867 124.088-240.415 125.541-238.256 125.887M-233.221 104.195C-231.423 105.302-229.97 106.727-228.891 108.539L-232.488 124.116C-233.595 122.317-235.393 120.851-237.191 120.491-238.99 119.772-240.816 118.333-241.895 116.521L-237.565 99.893C-236.458 102.064-235.033 103.49-233.221 104.223M-225.239 83.583C-227.065 82.477-228.504 81.065-229.251 79.253L-235.752 94.802C-234.646 96.601-233.207 98.053-231.395 99.132-229.597 99.893-228.144 101.691-227.065 103.504L-221.283 88.328C-222.362 86.529-223.455 84.689-225.253 83.625M-214.407 64.078C-216.206 62.971-217.312 61.173-217.658 59.015L-226.346 73.858C-225.613 75.656-224.547 77.482-222.721 78.921-220.923 79.986-219.816 81.826-219.125 83.971L-211.516 69.515C-211.876 67.328-212.969 65.503-214.421 64.078M-201.417 45.97C-202.856 44.517-203.935 42.719-203.935 40.547L-214.394 54.283C-214.034 56.497-212.955 58.295-211.488 59.734-210.063 61.187-208.971 62.984-208.611 65.156L-199.204 52.153C-199.564 49.607-200.283 47.81-201.362 45.997M-186.228 29.687C-185.122 31.859-185.122 34.391-185.854 36.922L-195.953 47.768C-195.981 45.624-196.7 43.812-198.139 42.013-199.246 40.215-200.353 38.389-200.353 36.203L-188.041 24.306C-188.414 26.104-187.694 28.263-186.242 29.701M-168.853 15.923C-169.932 14.124-170.292 11.952-169.932 10.154L-183.669 20.64C-183.669 22.826-183.309 24.651-182.216 26.45-181.165 28.249-180.418 30.421-180.805 32.232L-168.147 22.106C-168.147 19.948-168.147 17.776-168.881 15.964M-150.067 4.372C-150.787 2.573-151.146 .388-150.427-1.411L-165.229 7.263C-165.602 9.421-165.229 11.233-164.537 13.405-163.43 15.203-163.43 17.39-163.804 19.547L-150.04 11.247C-149.68 8.342-149.68 6.17-150.04 4.372M-129.095-4.315C-128.735-2.518-129.095-.691-129.814 .747L-145.364 7.982C-144.644 6.184-144.644 4.012-145.364 1.84-145.723 .042-145.723-2.144-145.364-3.942L-126.923-12.242C-129.095-10.444-130.174-7.207-129.095-4.302M-27.142-5.769C-28.594-7.221-29.673-9.365-30.046-11.191-27.515-14.788-26.062-19.118-26.422-23.821-24.623-22.369-22.092-21.649-19.561-22.022-18.107-22.022-16.655-22.022-15.576-21.649-15.936-14.041-19.173-6.819-24.623-1.396-24.623-3.195-25.702-4.661-27.142-5.74M-31.471-18.771C-32.55-14.788-35.455-11.163-39.08-9.365-40.878-9.738-43.036-10.099-44.848-10.099V-13.003C-45.236-13.736-45.236-14.456-45.236-14.802-45.236-17.347-46.688-19.879-48.486-21.304-42.704-21.304-36.921-20.611-31.499-18.813M-66.166 1.107-63.634 2.905C-60.729 4.704-57.852 6.156-54.228 7.249-53.508 6.143-53.148 4.718-52.789 3.266-52.789 .733-51.336-1.438-49.538-3.236-51.336-3.597-52.816-3.956-54.615-4.689-58.958-3.929-63.662-2.13-67.619 .015-67.272 .015-66.553 .401-66.193 1.121M11.718-63.274 3.168-70.523-1.535-65.018 7-57.755 11.704-63.288ZM5.423-56.025-3.112-63.288-4.053-62.182 4.482-54.933 5.423-56.04ZM-19.173-45.554C-16.642-42.648-14.829-39.397-13.363-36.146-9.767-38.679-6.861-41.569-3.983-44.82L2.519-52.388-5.782-59.623-12.284-52.042C-14.47-49.511-16.642-47.339-19.173-45.54M-150.372-57.894-141.836-65.143-146.54-70.648-155.061-63.399-150.357-57.866ZM-147.494-54.85-138.958-62.127-139.885-63.233-148.435-55.971-147.494-54.864ZM-129.054-41.569C-128.694-43.022-129.054-44.82-129.414-46.273L-130.52-52.056-137.022-59.664-145.322-52.415-138.82-44.807C-135.556-41.21-131.945-37.613-127.961-35.068-129.441-36.866-129.801-39.397-129.067-41.569M-123.271-17.734-126.176-16.282C-127.242-20.611-127.242-25.315-126.176-29.659-122.912-27.86-119.287-26.034-115.663-24.955V-21.358C-118.208-20.252-120.74-19.173-123.271-17.721M-123.271-38.665C-122.912-41.569-123.631-44.475-125.443-46.965-123.963-45.913-122.884-44.82-121.431-43.741-117.102-40.878-112.024-38.706-106.975-37.24-106.256-36.175-105.869-34.75-106.256-33.283-106.975-30.752-106.616-28.221-105.882-25.675-108.054-26.048-110.586-26.781-112.758-27.501-116.009-28.58-118.9-29.673-121.791-31.098-123.589-33.283-124.323-36.175-123.244-38.706M-91.827-42.316C-92.934-44.475-92.934-47.021-91.827-49.538-91.468-50.963-91.108-52.401-91.468-53.854-92.92-54.214-94.373-54.214-95.452-54.214-103.406-54.56-111.36-51.668-117.502-46.605-113.519-44.073-109.548-42.635-104.845-41.542-101.94-42.994-98.675-43.341-95.438-42.994-93.972-42.621-92.893-42.621-91.8-42.262M-101.967-32.536V-36.161C-97.983-35.441-93.667-35.441-89.655-36.161-86.059-32.91-82.088-30.019-78.104-27.487-85.339-25.315-92.574-24.236-100.155-24.955-102.299-27.127-103.019-30.019-101.954-32.564M-101.981-13.391V-9.794C-97.997-10.485-93.681-10.485-89.669-9.794-86.073-13.031-82.102-15.922-78.118-18.454-85.353-20.626-92.588-21.705-100.169-20.985-102.313-18.813-103.033-15.922-101.967-13.377M-123.313-7.248C-122.953-5.45-123.313-3.265-124.032-1.466L-117.89-3.983C-114.625-5.782-110.655-7.248-107.044-8.327-106.311-9.406-105.938-10.859-106.311-12.298-107.044-14.829-106.685-17.36-105.952-19.906-111.374-18.8-116.797-17.001-121.86-14.47-123.659-12.671-124.392-9.767-123.313-7.248M-95.479 2.532C-95.479 4.33-95.106 6.129-93.681 7.581H-95.479C-103.434 7.941-111.015 5.05-117.17-.027-113.187-2.545-108.843-3.983-104.513-5.076-102.341-4.344-100.169-3.624-97.637-3.624-96.559-1.452-95.839 .347-95.479 2.519M-72.723-7.954C-72.723-6.155-72.363-4.703-71.284-3.25-73.415-1.812-75.227-.719-77.039 1.079L-79.197 2.504C-82.102 4.303-85.353 6.102-88.604 6.848-89.323 5.741-89.683 4.316-90.057 2.864-90.057 .318-91.495-2.213-93.308-3.638-90.776-4.012-88.604-4.744-86.432-6.184L-83.9-7.636C-80.996-10.153-78.118-12.339-74.867-14.138-73.761-12.339-72.682-10.153-72.682-7.981M-50.326-15.161C-50.686-17.333-51.405-19.146-52.858-20.972-59.719-20.225-66.235-18.426-72.363-15.161-69.486-13.723-67.314-10.831-66.968-7.58-66.968-6.861-66.595-6.128-66.595-5.782-60.785-8.3-54.643-10.112-48.473-10.112-49.939-11.578-50.271-13.391-50.271-15.203M-56.081-46.619C-56.814-48.417-57.188-50.216-56.814-52.042-59.346-51.322-61.518-49.87-63.689-48.445L-68.753-44.82C-64.769-42.648-60.798-40.836-56.095-39.758-55.763-39.758-55.763-40.117-55.403-40.117-55.403-42.648-55.403-44.447-56.095-46.619M-33.671-45.222C-32.951-47.021-31.513-48.486-30.074-49.206-34.777-52.111-40.172-53.55-45.609-53.909-47.781-53.909-49.953-53.909-52.111-53.55-52.111-52.097-52.111-50.645-51.765-49.565-50.658-47.353-51.032-44.475-52.125-42.303-49.953-43.036-48.141-43.036-45.969-43.036-43.41-43.036-41.265-42.289-39.08-41.569-36.548-41.93-35.096-43.368-33.657-45.194M-21.026-27.155C-23.198-26.781-25.37-27.501-27.169-28.22-28.275-32.563-31.153-36.175-34.777-39.065-32.231-39.813-30.074-41.279-28.967-43.438-28.275-44.517-27.169-45.609-26.09-46.342-20.308-41.266-16.683-34.403-15.604-26.81-17.402-27.528-19.2-27.528-21.026-27.169M-31.499-27.169C-36.921-25.702-42.704-24.623-48.486-24.983-46.314-26.436-45.235-28.967-45.235-31.485-45.235-32.218-44.876-32.938-44.876-33.283V-36.188L-39.121-36.922C-35.137-34.39-32.619-31.111-31.513-27.155M-50.299-30.766C-50.658-28.594-51.378-26.795-52.83-24.983-59.692-25.702-66.567-27.515-72.709-30.766-69.458-32.218-67.646-35.109-67.287-38.374-67.287-39.065-66.955-39.439-66.955-40.173-61.172-37.641-55.03-36.188-48.874-35.829-49.98-34.376-50.313-32.578-50.313-30.766M-72.363-37.973C-72.723-35.801-73.442-33.629-74.895-32.19-78.492-33.989-81.756-36.521-84.662-39.052-85.381-39.439-86.46-40.158-87.193-40.532-87.525-42.704-87.525-44.502-86.778-46.674-85.713-48.473-85.713-50.271-86.086-52.484-82.49-51.378-79.211-49.22-76.32-47.048-75.213-45.969-73.788-44.876-72.335-44.143-71.616-43.797-71.257-43.451-70.537-43.077-71.976-41.252-72.695-39.439-72.335-38.001M8.231 304.382C8.965 306.181 9.338 308.394 8.604 310.192L23.407 301.505C23.78 299.333 23.407 297.535 22.715 295.363 21.608 293.564 21.608 291.378 21.982 289.207L8.245 297.535C7.913 300.398 7.913 302.556 8.245 304.368M-12.021 313.803C-11.302 315.601-11.661 317.773-12.381 319.585L3.528 313.083C4.275 311.285 4.275 309.1 3.528 306.928 2.836 305.129 2.836 302.943 3.528 300.786L-11.274 307.287C-11.993 309.459-12.381 311.631-11.993 313.789M-33.325 319.973C-32.965 322.131-33.325 323.929-34.403 325.741L-17.775 321.397C-17.084 319.599-16.725 317.427-16.725 315.255-17.084 313.042-16.725 310.884-15.991 309.085L-31.554 313.789C-32.633 315.587-33.353 317.759-33.353 319.931M-55.375 323.569C-55.375 325.741-56.067 327.554-57.174 328.992L-40.159 326.82C-39.093 325.022-38.36 323.224-38.36 321.038-38.36 318.866-38 317.068-36.562 315.255L-52.484 317.759C-53.923 319.198-55.016 321.356-55.39 323.542M-77.413 323.929C-77.413 326.101-78.492 327.913-79.944 329.352H-62.957C-61.504 327.913-60.785 325.755-60.425 323.929-60.425 321.757-59.318 319.959-57.894 318.506L-74.162 318.866C-75.601 320.318-76.693 322.131-77.413 323.929M-99.477 321.785C-99.837 323.943-101.275 325.382-102.728 326.488L-85.74 328.646C-84.302 327.194-83.209 325.396-82.49 323.583-82.102 321.412-81.009 319.613-79.211 318.52L-95.12 316.722C-97.278 318.161-98.716 319.973-99.45 321.771M-121.168 316.694C-121.888 318.493-123.34 320.318-125.152 321.038L-108.511 325.382C-106.712 324.316-105.605 322.518-104.541 320.678-103.821 318.88-102.369 317.082-100.944 315.975L-116.465 312.378C-118.637 313.485-120.089 314.923-121.168 316.736M-141.781 308.768C-142.887 310.566-144.312 312.004-146.125 312.724L-130.575 319.226C-128.777 318.146-127.324 316.708-126.246 314.896-125.18 313.097-123.755 311.645-121.929 310.552L-137.077 304.756C-138.875 305.862-140.674 306.941-141.781 308.768M-161.313 297.894C-162.393 299.692-164.219 300.799-166.377 301.159L-151.547 309.833C-149.749 309.113-147.95 308.034-146.484 306.236-145.405 304.41-143.579 303.331-141.421 302.598L-155.891 295.017C-158.063 295.736-159.861 296.456-161.313 297.922M-179.367 284.891C-180.819 286.329-182.631 287.422-184.79 287.422L-171.053 297.908C-168.922 297.535-167.11 296.456-165.657 295.003-164.219 293.564-162.407 292.485-160.235 292.125L-173.612 282.719C-175.784 283.078-177.596 283.798-179.394 284.891" fill="#ffffff"/>
<path transform="matrix(1,0,0,-1,97.9727,276.5189)" d="M0 0-6.688 6.044 2.768 9.83ZM180.706 4.78 160.538 24.953 154.598 18.949 174.854-1.132 180.732 4.763ZM2.778 18.769-26.646 6.979-19.786 .794-12.9 3.557-1.82-6.426-3.837-13.555 3.041-19.756 11.695 10.741ZM158.818 9.519 150.997 4.443C150.335 5.451 149.005 5.742 147.984 5.069L135.982-2.72C134.974-3.369 134.692-4.707 135.333-5.721L141.246-14.783C141.553-15.271 142.036-15.611 142.609-15.721 143.163-15.844 143.755-15.734 144.233-15.414L156.238-7.624C157.243-6.962 157.528-5.628 156.875-4.624L155.703-2.803 163.529 2.255 165.875-1.374C167.871-4.448 166.994-8.572 163.923-10.572L143.804-23.64C142.325-24.604 140.51-24.933 138.785-24.56 137.062-24.199 135.562-23.165 134.592-21.674L126.355-8.979C124.337-5.887 125.21-1.776 128.298 .231L148.413 13.299C151.502 15.294 155.62 14.431 157.639 11.338ZM44.255-29.876 48.106-20.349 30.814-13.371 28.591-18.884 35.088-21.502 37.236-22.371 36.425-24.375C36.201-24.919 35.785-25.341 35.254-25.556 34.741-25.788 34.14-25.788 33.609-25.573L20.327-20.217C19.209-19.756 18.691-18.497 19.121-17.396L23.183-7.374C23.389-6.826 23.823-6.409 24.336-6.182 24.868-5.957 25.456-5.957 25.999-6.168L39.281-11.54C39.807-11.752 40.237-12.169 40.453-12.7 40.693-13.235 40.693-13.821 40.483-14.353L49.115-17.845 49.913-15.844C51.316-12.427 49.659-8.55 46.25-7.163L24.007 1.811C20.612 3.196 16.727 1.543 15.336-1.865L9.681-15.919C8.287-19.313 9.936-23.199 13.344-24.573L35.587-33.561C39.008-34.938 42.877-33.284 44.255-29.876M100.948-29.196C101.112-29.803 101.522-30.346 102.094-30.666 102.646-30.986 103.309-31.078 103.935-30.912L115.753-27.735C116.604-27.517 117.267-26.845 117.473-26.002 117.695-25.17 117.449-24.262 116.836-23.657 116.208-23.029 115.297-22.815 114.463-23.06L97.738-27.521C94.185-28.481 90.532-26.367 89.584-22.815L88.653-19.327C87.707-15.783 89.821-12.124 93.359-11.173L115.042-5.365C118.595-4.418 122.244-6.519 123.191-10.067L123.832-12.428 114.818-14.832C114.471-13.532 113.135-12.773 111.839-13.112L100.001-16.283C98.708-16.634 97.944-17.968 98.277-19.27 98.637-20.564 99.962-21.332 101.269-20.984L118.028-16.503C119.727-16.042 121.561-16.278 123.069-17.16 124.604-18.037 125.728-19.498 126.184-21.209L127.113-24.696C127.561-26.402 127.323-28.223 126.45-29.74 125.569-31.271 124.131-32.398 122.405-32.846L100.726-38.663C97.172-39.604 93.531-37.499 92.561-33.955L91.944-31.6ZM85.798-12.734 85.096-19.37 62.924-17.037 62.405-21.871 81.934-23.92 81.32-29.841 61.809-27.788 61.34-32.082 83.512-34.43 82.819-41.048 51.378-37.736 54.344-9.431Z" fill="#ffffff"/>
<path transform="matrix(1,0,0,-1,329.0059,104.11221)" d="M0 0C-1.799-1.453-2.905-2.905-3.597-5.063L2.172-20.252C2.891-18.454 4.344-16.628 6.516-15.909 8.313-14.83 9.767-13.377 10.846-11.565L4.344 4.344C3.265 2.545 1.812 1.079 0 0M7.927-20.612C6.128-21.691 4.689-23.144 3.61-24.942L7.207-40.519C8.313-38.72 10.112-37.268 11.911-36.922 13.709-36.175 15.535-34.736 16.614-32.91L12.284-16.31C11.178-18.468 9.753-19.907 7.94-20.64" fill="#ffffff"/>
</g>
</g>
</g>
</g>
</svg>
